# Blender v2.90.1 OBJ File: 'dice.blend1'
# www.blender.org
mtllib dice.mtl
o Cube
v 1.000000 1.000000 -1.000000
v 1.000000 -1.000000 -1.000000
v 1.000000 1.000000 1.000000
v 1.000000 -1.000000 1.000000
v -1.000000 1.000000 -1.000000
v -1.000000 -1.000000 -1.000000
v -1.000000 1.000000 1.000000
v -1.000000 -1.000000 1.000000
vt 0 0
vt 1 0
vt 1 1
vt 0 1
vn 0.0000 1.0000 0.0000
vn 0.0000 0.0000 1.0000
vn -1.0000 0.0000 0.0000
vn 0.0000 -1.0000 0.0000
vn 1.0000 0.0000 0.0000
vn 0.0000 0.0000 -1.0000
g Cube_Cube_Material
usemtl Material
s off
f 1/3/1 5/2/1 7/1/1 3/4/1
f 4/3/2 3/2/2 7/1/2 8/4/2
f 8/3/3 7/2/3 5/1/3 6/4/3
f 6/3/4 2/2/4 4/1/4 8/4/4
f 2/3/5 1/2/5 3/1/5 4/4/5
f 6/3/6 5/2/6 1/1/6 2/4/6